<svg width="203" height="118" viewBox="0 0 203 118" fill="none" xmlns="http://www.w3.org/2000/svg">
<path d="M25.5 117.998C11.4167 117.998 0 106.582 0 92.4983L0 57.9983H51V92.4983C51 106.582 39.5833 117.998 25.5 117.998V117.998Z" fill="#FF0000"/>
<rect x="3.81281" y="114.5" width="111" height="44" rx="22" transform="rotate(-90 3.81281 114.5)" stroke="white" stroke-width="7"/>
<rect x="2.31821" y="62" width="7" height="47" transform="rotate(-90 2.31821 62)" fill="white"/>
<path d="M33.717 21.982C33.903 22.23 34.0167 22.5193 34.058 22.85C34.058 22.974 34.0477 23.098 34.027 23.222C34.027 23.3253 34.0167 23.4287 33.996 23.532C33.9753 23.7593 33.841 23.9763 33.593 24.183C33.4483 24.2863 33.2623 24.3897 33.035 24.493C32.911 24.5343 32.7767 24.5653 32.632 24.586C32.508 24.586 32.3633 24.5963 32.198 24.617C32.074 24.6583 31.9397 24.679 31.795 24.679C31.6503 24.679 31.5057 24.679 31.361 24.679H29.966L23.487 24.71V24.803L23.456 29.856C23.6213 29.856 23.797 29.856 23.983 29.856C24.1897 29.856 24.4377 29.8457 24.727 29.825C25.5537 29.825 26.2873 29.825 26.928 29.825C27.5893 29.825 28.3127 29.8353 29.098 29.856H29.284C29.5113 29.856 29.7387 29.8663 29.966 29.887C30.214 29.887 30.462 29.887 30.71 29.887C30.9373 29.9077 31.1647 29.9387 31.392 29.98C31.6193 30.0007 31.8467 30.0523 32.074 30.135C32.446 30.259 32.7147 30.4553 32.88 30.724C33.1073 30.9927 33.221 31.2717 33.221 31.561C33.221 31.685 33.221 31.809 33.221 31.933C33.221 32.0363 33.2003 32.15 33.159 32.274C33.1383 32.4393 33.004 32.646 32.756 32.894C32.5907 33.0387 32.3943 33.1317 32.167 33.173C32.0637 33.2143 31.9397 33.2557 31.795 33.297C31.671 33.3177 31.5367 33.3383 31.392 33.359C31.2473 33.3797 31.1027 33.4003 30.958 33.421C30.834 33.421 30.6893 33.421 30.524 33.421H29.098L23.394 33.452L23.301 40.644V40.892C23.301 40.9953 23.2907 41.0987 23.27 41.202C23.27 41.2847 23.2597 41.3777 23.239 41.481C23.1977 41.5843 23.1563 41.698 23.115 41.822C23.0943 41.9253 23.0633 42.0287 23.022 42.132C22.8773 42.4213 22.743 42.6177 22.619 42.721C22.3917 42.8863 22.1127 43 21.782 43.062C21.224 43.186 20.697 43.124 20.201 42.876C20.0977 42.814 19.9943 42.7417 19.891 42.659C19.8083 42.5557 19.736 42.4317 19.674 42.287C19.6327 42.2043 19.612 42.1423 19.612 42.101L19.519 41.915C19.457 41.8117 19.4157 41.7083 19.395 41.605C19.3743 41.481 19.3537 41.3673 19.333 41.264C19.333 41.1607 19.3227 41.0573 19.302 40.954C19.302 40.8507 19.2917 40.7473 19.271 40.644C19.2503 40.4787 19.2503 40.3133 19.271 40.148V39.652L19.302 37.234L19.333 32.77C19.3537 32.1087 19.364 31.437 19.364 30.755C19.364 30.073 19.364 29.3703 19.364 28.647C19.3433 27.903 19.333 27.2417 19.333 26.663C19.3537 26.0843 19.3847 25.454 19.426 24.772V24.617C19.4467 24.3897 19.457 24.183 19.457 23.997C19.457 23.7903 19.4777 23.5837 19.519 23.377C19.5603 22.9223 19.6637 22.5193 19.829 22.168C19.9737 21.8167 20.1803 21.5687 20.449 21.424C20.759 21.238 21.0897 21.145 21.441 21.145C21.6063 21.145 21.7407 21.1553 21.844 21.176V21.145C22.216 21.145 22.5157 21.145 22.743 21.145C22.9703 21.145 23.1873 21.145 23.394 21.145C23.6007 21.145 23.828 21.145 24.076 21.145C24.324 21.1243 24.6547 21.114 25.068 21.114C26.7213 21.0933 28.354 21.0933 29.966 21.114H30.121C30.3483 21.1347 30.5757 21.145 30.803 21.145C31.051 21.145 31.299 21.1553 31.547 21.176C31.7743 21.176 32.0017 21.207 32.229 21.269C32.4563 21.3103 32.6837 21.3723 32.911 21.455C33.2623 21.5583 33.531 21.734 33.717 21.982Z" fill="white"/>
<path d="M78.759 23.914C78.981 24.21 79.1167 24.5553 79.166 24.95C79.166 25.098 79.1537 25.246 79.129 25.394C79.129 25.5173 79.1167 25.6407 79.092 25.764C79.0673 26.0353 78.907 26.2943 78.611 26.541C78.4383 26.6643 78.2163 26.7877 77.945 26.911C77.797 26.9603 77.6367 26.9973 77.464 27.022C77.316 27.022 77.1433 27.0343 76.946 27.059C76.798 27.1083 76.6377 27.133 76.465 27.133C76.2923 27.133 76.1197 27.133 75.947 27.133H74.282L66.549 27.17V27.281L66.512 33.312C66.7093 33.312 66.919 33.312 67.141 33.312C67.3877 33.312 67.6837 33.2997 68.029 33.275C69.0157 33.275 69.8913 33.275 70.656 33.275C71.4453 33.275 72.3087 33.2873 73.246 33.312H73.468C73.7393 33.312 74.0107 33.3243 74.282 33.349C74.578 33.349 74.874 33.349 75.17 33.349C75.4413 33.3737 75.7127 33.4107 75.984 33.46C76.2553 33.4847 76.5267 33.5463 76.798 33.645C77.242 33.793 77.5627 34.0273 77.76 34.348C78.0313 34.6687 78.167 35.0017 78.167 35.347C78.167 35.495 78.167 35.643 78.167 35.791C78.167 35.9143 78.1423 36.05 78.093 36.198C78.0683 36.3953 77.908 36.642 77.612 36.938C77.4147 37.1107 77.1803 37.2217 76.909 37.271C76.7857 37.3203 76.6377 37.3697 76.465 37.419C76.317 37.4437 76.1567 37.4683 75.984 37.493C75.8113 37.5177 75.6387 37.5423 75.466 37.567C75.318 37.567 75.1453 37.567 74.948 37.567H73.246L66.438 37.604L66.327 46.188V46.484C66.327 46.6073 66.3147 46.7307 66.29 46.854C66.29 46.9527 66.2777 47.0637 66.253 47.187C66.2037 47.3103 66.1543 47.446 66.105 47.594C66.0803 47.7173 66.0433 47.8407 65.994 47.964C65.8213 48.3093 65.661 48.5437 65.513 48.667C65.2417 48.8643 64.9087 49 64.514 49.074C63.848 49.222 63.219 49.148 62.627 48.852C62.5037 48.778 62.3803 48.6917 62.257 48.593C62.1583 48.4697 62.072 48.3217 61.998 48.149C61.9487 48.0503 61.924 47.9763 61.924 47.927L61.813 47.705C61.739 47.5817 61.6897 47.4583 61.665 47.335C61.6403 47.187 61.6157 47.0513 61.591 46.928C61.591 46.8047 61.5787 46.6813 61.554 46.558C61.554 46.4347 61.5417 46.3113 61.517 46.188C61.4923 45.9907 61.4923 45.7933 61.517 45.596V45.004L61.554 42.118L61.591 36.79C61.6157 36.0007 61.628 35.199 61.628 34.385C61.628 33.571 61.628 32.7323 61.628 31.869C61.6033 30.981 61.591 30.1917 61.591 29.501C61.6157 28.8103 61.6527 28.058 61.702 27.244V27.059C61.7267 26.7877 61.739 26.541 61.739 26.319C61.739 26.0723 61.7637 25.8257 61.813 25.579C61.8623 25.0363 61.9857 24.5553 62.183 24.136C62.3557 23.7167 62.6023 23.4207 62.923 23.248C63.293 23.026 63.6877 22.915 64.107 22.915C64.3043 22.915 64.4647 22.9273 64.588 22.952V22.915C65.032 22.915 65.3897 22.915 65.661 22.915C65.9323 22.915 66.1913 22.915 66.438 22.915C66.6847 22.915 66.956 22.915 67.252 22.915C67.548 22.8903 67.9427 22.878 68.436 22.878C70.4093 22.8533 72.358 22.8533 74.282 22.878H74.467C74.7383 22.9027 75.0097 22.915 75.281 22.915C75.577 22.915 75.873 22.9273 76.169 22.952C76.4403 22.952 76.7117 22.989 76.983 23.063C77.2543 23.1123 77.5257 23.1863 77.797 23.285C78.2163 23.4083 78.537 23.618 78.759 23.914ZM100.749 46.484C100.774 46.632 100.786 46.78 100.786 46.928C100.811 47.0513 100.823 47.1993 100.823 47.372C100.823 47.668 100.737 47.9393 100.564 48.186C100.49 48.3093 100.392 48.4327 100.268 48.556C100.145 48.6547 99.9971 48.741 99.8244 48.815C99.2078 49.1603 98.5541 49.2837 97.8634 49.185C97.5181 49.0863 97.2098 48.926 96.9384 48.704C96.8891 48.6547 96.8521 48.63 96.8274 48.63C96.8028 48.6053 96.7781 48.5683 96.7534 48.519C96.7288 48.4943 96.7041 48.4697 96.6794 48.445C96.6548 48.3957 96.6178 48.3587 96.5684 48.334C96.4451 48.2107 96.3464 48.0997 96.2724 48.001C96.1984 47.8777 96.1244 47.7543 96.0504 47.631C96.0011 47.5077 95.9394 47.3967 95.8654 47.298C95.8161 47.1747 95.7544 47.0513 95.6804 46.928C95.6311 46.8293 95.5818 46.743 95.5324 46.669C95.4831 46.5703 95.4461 46.4717 95.4214 46.373C95.3228 46.151 95.2611 45.9537 95.2364 45.781L94.4594 43.968C92.7574 43.968 91.0554 43.9803 89.3534 44.005C87.6761 44.005 85.9864 43.9927 84.2844 43.968L83.5074 45.781C83.4581 45.8797 83.4211 45.9783 83.3964 46.077C83.3964 46.1757 83.3718 46.2743 83.3224 46.373C83.2731 46.4717 83.2238 46.5703 83.1744 46.669C83.1498 46.743 83.1128 46.8293 83.0634 46.928C82.9894 47.0513 82.9154 47.1747 82.8414 47.298C82.7921 47.3967 82.7304 47.5077 82.6564 47.631C82.6071 47.7543 82.5454 47.8777 82.4714 48.001C82.3974 48.0997 82.2988 48.2107 82.1754 48.334C82.1261 48.3587 82.0891 48.3957 82.0644 48.445C82.0398 48.4697 82.0151 48.4943 81.9904 48.519C81.9658 48.5683 81.9411 48.6053 81.9164 48.63C81.8918 48.63 81.8548 48.6547 81.8054 48.704C81.5341 48.926 81.2258 49.0863 80.8804 49.185C80.1898 49.2837 79.5361 49.1603 78.9194 48.815C78.7468 48.741 78.5988 48.6547 78.4754 48.556C78.3521 48.4327 78.2534 48.3093 78.1794 48.186C78.0068 47.9393 77.9204 47.668 77.9204 47.372C77.9204 47.1993 77.9204 47.0513 77.9204 46.928C77.9451 46.78 77.9698 46.632 77.9944 46.484C78.0438 46.262 78.1054 46.04 78.1794 45.818C78.2534 45.596 78.2904 45.485 78.2904 45.485L85.9864 26.541L86.2084 25.949C86.2578 25.801 86.3194 25.6653 86.3934 25.542C86.4674 25.4187 86.5291 25.2707 86.5784 25.098C86.7018 24.7773 86.8374 24.4937 86.9854 24.247C87.0594 24.099 87.1458 23.9633 87.2444 23.84C87.3431 23.7167 87.4418 23.5933 87.5404 23.47C87.6884 23.2727 87.8981 23.1123 88.1694 22.989C88.5148 22.8657 88.9094 22.804 89.3534 22.804C89.8221 22.804 90.2291 22.8657 90.5744 22.989C90.8458 23.1123 91.0554 23.2727 91.2034 23.47C91.3761 23.692 91.5611 23.951 91.7584 24.247C91.9064 24.4937 92.0421 24.7773 92.1654 25.098C92.2148 25.2707 92.2764 25.4187 92.3504 25.542C92.4244 25.6653 92.4861 25.801 92.5354 25.949L92.7574 26.541L100.453 45.485C100.453 45.485 100.49 45.596 100.564 45.818C100.638 46.04 100.7 46.262 100.749 46.484ZM91.9804 37.419C91.6598 36.7037 91.3268 35.9637 90.9814 35.199C90.6608 34.4343 90.3154 33.6573 89.9454 32.868C89.8468 32.646 89.7481 32.424 89.6494 32.202C89.5508 31.9553 89.4521 31.721 89.3534 31.499C89.2794 31.721 89.1931 31.9553 89.0944 32.202C88.9958 32.424 88.8971 32.646 88.7984 32.868C88.4284 33.6573 88.0708 34.4343 87.7254 35.199C87.4048 35.9637 87.0841 36.7037 86.7634 37.419L86.0974 39.047H92.6464L91.9804 37.419ZM122.958 38.233C123.081 38.5783 123.167 38.973 123.217 39.417C123.291 39.8363 123.328 40.268 123.328 40.712C123.328 41.156 123.291 41.6 123.217 42.044C123.167 42.4633 123.093 42.8333 122.995 43.154C122.6 44.5353 121.811 45.6947 120.627 46.632C119.443 47.5447 118.086 48.2107 116.557 48.63C115.052 49.0493 113.486 49.1973 111.858 49.074C110.254 48.9507 108.824 48.5437 107.566 47.853C106.776 47.409 106.098 46.8663 105.531 46.225C104.963 45.5837 104.482 44.8683 104.088 44.079C103.94 43.8077 103.841 43.4993 103.792 43.154C103.767 42.784 103.804 42.4387 103.903 42.118C104.001 41.7727 104.162 41.4767 104.384 41.23C104.606 40.9587 104.914 40.7737 105.309 40.675C105.555 40.6257 105.827 40.601 106.123 40.601C106.443 40.601 106.752 40.6503 107.048 40.749C107.344 40.823 107.615 40.9587 107.862 41.156C108.108 41.3287 108.306 41.5753 108.454 41.896C108.725 42.414 109.107 42.895 109.601 43.339C110.119 43.7583 110.661 44.1037 111.229 44.375C112.043 44.6463 112.857 44.7573 113.671 44.708C114.509 44.6587 115.262 44.4737 115.928 44.153C116.618 43.8323 117.173 43.4007 117.593 42.858C118.012 42.2907 118.222 41.6493 118.222 40.934C118.222 40.342 118.135 39.861 117.963 39.491C117.79 39.0963 117.543 38.7757 117.223 38.529C116.927 38.2577 116.557 38.0357 116.113 37.863C115.693 37.6903 115.225 37.5423 114.707 37.419C114.115 37.2957 113.51 37.2093 112.894 37.16C112.302 37.1107 111.697 37.049 111.081 36.975C110.464 36.901 109.86 36.8023 109.268 36.679C108.676 36.5557 108.096 36.3707 107.529 36.124C106.394 35.6553 105.531 34.94 104.939 33.978C104.347 33.016 103.989 31.98 103.866 30.87C103.767 29.76 103.903 28.6623 104.273 27.577C104.643 26.467 105.235 25.5173 106.049 24.728C106.838 24.0127 107.775 23.507 108.861 23.211C109.971 22.8903 111.192 22.7053 112.524 22.656C113.264 22.6313 114.004 22.656 114.744 22.73C115.508 22.804 116.236 22.9273 116.927 23.1C117.642 23.2727 118.296 23.4947 118.888 23.766C119.504 24.0373 120.035 24.358 120.479 24.728C120.799 24.9747 121.12 25.3077 121.441 25.727C121.761 26.1217 122.008 26.5533 122.181 27.022C122.353 27.466 122.403 27.8977 122.329 28.317C122.279 28.7363 122.02 29.094 121.552 29.39C121.157 29.6367 120.775 29.7477 120.405 29.723C120.059 29.6737 119.726 29.5627 119.406 29.39C119.085 29.1927 118.777 28.9707 118.481 28.724C118.185 28.4773 117.913 28.2553 117.667 28.058C117.001 27.5647 116.174 27.2317 115.188 27.059C114.201 26.8863 113.276 26.8493 112.413 26.948C111.87 27.022 111.364 27.1453 110.896 27.318C110.427 27.4907 110.02 27.725 109.675 28.021C109.354 28.317 109.095 28.687 108.898 29.131C108.725 29.5503 108.663 30.0313 108.713 30.574C108.737 30.9687 108.848 31.3017 109.046 31.573C109.268 31.8443 109.527 32.0663 109.823 32.239C110.143 32.4117 110.489 32.5473 110.859 32.646C111.229 32.7447 111.599 32.8187 111.969 32.868C113.079 33.016 114.189 33.127 115.299 33.201C116.409 33.275 117.494 33.5217 118.555 33.941C119.64 34.3603 120.565 34.9277 121.33 35.643C122.094 36.3583 122.637 37.2217 122.958 38.233ZM145.245 23.951C145.516 24.2717 145.652 24.6047 145.652 24.95C145.652 25.098 145.639 25.2583 145.615 25.431C145.615 25.579 145.602 25.7147 145.578 25.838C145.504 26.1093 145.343 26.3683 145.097 26.615C144.899 26.763 144.628 26.874 144.283 26.948C144.11 26.9973 143.937 27.0343 143.765 27.059C143.592 27.0837 143.407 27.1207 143.21 27.17C143.037 27.1947 142.864 27.207 142.692 27.207C142.519 27.207 142.334 27.207 142.137 27.207H140.25C139.806 27.2317 139.362 27.244 138.918 27.244C138.498 27.244 138.079 27.244 137.66 27.244C137.684 28.0087 137.697 28.835 137.697 29.723C137.697 30.5863 137.684 31.5977 137.66 32.757C137.66 33.9163 137.647 35.2607 137.623 36.79C137.623 38.3193 137.623 40.0953 137.623 42.118V44.93C137.623 45.1767 137.635 45.3617 137.66 45.485C137.66 45.5837 137.66 45.6823 137.66 45.781C137.66 45.855 137.647 45.9537 137.623 46.077C137.573 46.299 137.536 46.558 137.512 46.854C137.512 46.9773 137.499 47.1007 137.475 47.224C137.45 47.3227 137.413 47.4337 137.364 47.557C137.265 47.6557 137.216 47.7297 137.216 47.779L137.105 48.001C136.981 48.2477 136.747 48.482 136.402 48.704C135.859 48.9753 135.255 49.037 134.589 48.889C134.169 48.8397 133.849 48.7287 133.627 48.556C133.405 48.334 133.244 48.112 133.146 47.89C132.998 47.6187 132.911 47.3597 132.887 47.113C132.813 46.891 132.776 46.6567 132.776 46.41V27.392C132.628 27.392 132.319 27.392 131.851 27.392C131.382 27.392 130.876 27.392 130.334 27.392C129.816 27.3673 129.322 27.3427 128.854 27.318C128.385 27.2933 128.064 27.2687 127.892 27.244C127.744 27.2193 127.509 27.1823 127.189 27.133C126.893 27.0837 126.646 27.0343 126.449 26.985C125.931 26.837 125.524 26.6027 125.228 26.282C124.956 25.9613 124.821 25.6037 124.821 25.209C124.821 25.061 124.821 24.913 124.821 24.765C124.821 24.617 124.845 24.4813 124.895 24.358C124.969 24.062 125.166 23.8153 125.487 23.618C125.585 23.544 125.733 23.4577 125.931 23.359C126.153 23.2357 126.362 23.1493 126.56 23.1C126.856 23.0013 127.226 22.9273 127.67 22.878C127.867 22.8533 128.064 22.841 128.262 22.841C128.459 22.841 128.669 22.841 128.891 22.841C129.754 22.841 130.568 22.841 131.333 22.841C132.122 22.841 132.948 22.8287 133.812 22.804C135.242 22.7793 136.661 22.7793 138.067 22.804C139.497 22.804 140.916 22.8287 142.322 22.878C142.642 22.9027 142.951 22.9397 143.247 22.989C143.543 23.0383 143.839 23.1247 144.135 23.248C144.357 23.322 144.566 23.4207 144.764 23.544C144.961 23.6427 145.121 23.7783 145.245 23.951ZM84.013 92.336C83.9883 92.632 83.9513 92.9403 83.902 93.261C83.8527 93.5817 83.7663 93.8777 83.643 94.149C83.5197 94.445 83.3593 94.667 83.162 94.815C82.8907 95.0617 82.57 95.1973 82.2 95.222C81.8547 95.3453 81.5217 95.3823 81.201 95.333C80.8803 95.2837 80.5843 95.1973 80.313 95.074C79.9677 94.852 79.7087 94.593 79.536 94.297C79.388 93.9763 79.277 93.6433 79.203 93.298C79.129 92.9527 79.092 92.595 79.092 92.225C79.092 91.855 79.092 91.5097 79.092 91.189V88.303L79.055 82.642C79.055 82.2473 79.055 81.939 79.055 81.717C79.055 81.495 79.055 81.2977 79.055 81.125C79.055 80.9277 79.0427 80.718 79.018 80.496C79.018 80.2493 79.018 79.904 79.018 79.46C79.018 79.386 79.018 79.2627 79.018 79.09C79.0427 78.8927 79.0303 78.387 78.981 77.573C78.019 79.1763 77.2173 80.4713 76.576 81.458C75.9593 82.42 75.429 83.1723 74.985 83.715C74.5657 84.233 74.1957 84.5907 73.875 84.788C73.5543 84.9607 73.2213 85.0593 72.876 85.084C72.6787 85.1087 72.4813 85.0717 72.284 84.973C72.0867 84.8743 71.8893 84.751 71.692 84.603C71.5193 84.455 71.3467 84.307 71.174 84.159C71.026 83.9863 70.9027 83.826 70.804 83.678C70.212 82.938 69.546 82.05 68.806 81.014C68.066 79.978 67.3013 78.72 66.512 77.24C66.512 77.2647 66.4997 77.6717 66.475 78.461C66.475 79.2503 66.475 80.237 66.475 81.421C66.475 82.5803 66.4627 83.8383 66.438 85.195C66.438 86.527 66.4257 87.7727 66.401 88.932C66.401 90.0913 66.3887 91.0657 66.364 91.855C66.3393 92.6197 66.3147 93.002 66.29 93.002C66.29 93.4213 66.1913 93.816 65.994 94.186C65.7967 94.5313 65.5253 94.815 65.18 95.037C64.8593 95.259 64.477 95.3823 64.033 95.407C63.589 95.4317 63.108 95.3083 62.59 95.037C62.2693 94.8397 62.0227 94.556 61.85 94.186C61.702 93.816 61.6033 93.4707 61.554 93.15C61.5293 92.8047 61.5047 92.4717 61.48 92.151C61.48 91.8303 61.48 91.4973 61.48 91.152L61.517 88.266L61.554 82.568V77.61C61.554 75.464 61.628 73.355 61.776 71.283C61.776 71.0117 61.8007 70.765 61.85 70.543C61.924 70.2963 62.0103 70.062 62.109 69.84C62.3063 69.4453 62.5653 69.1493 62.886 68.952C63.256 68.73 63.6507 68.619 64.07 68.619C64.2427 68.619 64.403 68.6313 64.551 68.656C64.7237 68.656 64.884 68.6683 65.032 68.693C65.5253 68.7917 65.9447 69.0877 66.29 69.581C66.66 70.0497 67.0053 70.4567 67.326 70.802C67.5233 71.024 67.733 71.2953 67.955 71.616C68.177 71.9367 68.399 72.2697 68.621 72.615C68.843 72.9603 69.0527 73.2933 69.25 73.614C69.4473 73.9347 69.62 74.2183 69.768 74.465C70.4093 75.501 70.9767 76.4507 71.47 77.314C71.988 78.1773 72.469 78.9173 72.913 79.534C72.987 79.46 73.0733 79.3613 73.172 79.238C73.2707 79.09 73.3693 78.942 73.468 78.794C73.5913 78.6213 73.69 78.461 73.764 78.313C73.8627 78.165 73.9367 78.0417 73.986 77.943C74.2327 77.5483 74.4793 77.166 74.726 76.796C74.9727 76.4013 75.2317 75.9943 75.503 75.575C75.799 75.131 76.095 74.65 76.391 74.132C76.7117 73.614 77.0817 73.022 77.501 72.356C77.6737 72.06 77.8957 71.7023 78.167 71.283C78.4383 70.8637 78.7467 70.4567 79.092 70.062C79.4373 69.6673 79.795 69.3343 80.165 69.063C80.5597 68.767 80.9543 68.619 81.349 68.619C81.5463 68.619 81.719 68.6313 81.867 68.656C82.015 68.656 82.163 68.6683 82.311 68.693C82.607 68.7177 82.8907 68.8533 83.162 69.1C83.3593 69.2973 83.5073 69.507 83.606 69.729C83.7047 70.0497 83.7663 70.321 83.791 70.543C83.8157 70.7157 83.828 70.876 83.828 71.024C83.8527 71.172 83.865 71.32 83.865 71.468C83.865 72.8493 83.8773 74.2183 83.902 75.575C83.9267 76.9317 83.939 78.3007 83.939 79.682C83.939 81.3593 83.939 83.086 83.939 84.862C83.9637 86.638 83.976 88.3647 83.976 90.042C83.976 90.3873 83.9883 90.7573 84.013 91.152C84.0377 91.5467 84.0377 91.9413 84.013 92.336ZM92.0949 73.244L92.0209 79.053H93.5009C94.5122 79.0283 95.4126 79.016 96.2019 79.016C96.9912 79.016 97.8669 79.0283 98.8289 79.053H99.0139C99.3099 79.053 99.5936 79.0653 99.8649 79.09C100.161 79.09 100.445 79.09 100.716 79.09C101.012 79.1147 101.296 79.164 101.567 79.238C101.838 79.2873 102.11 79.349 102.381 79.423C102.8 79.571 103.146 79.793 103.417 80.089C103.664 80.4097 103.787 80.7673 103.787 81.162C103.787 81.2853 103.787 81.4333 103.787 81.606C103.787 81.754 103.762 81.8897 103.713 82.013C103.664 82.2843 103.503 82.531 103.232 82.753C103.109 82.9257 102.874 83.049 102.529 83.123C102.208 83.2217 101.888 83.2833 101.567 83.308C101.222 83.382 100.876 83.419 100.531 83.419H98.7919L91.9469 83.456L91.8729 90.708L99.2359 90.782H100.975C101.172 90.782 101.357 90.782 101.53 90.782C101.703 90.782 101.863 90.7943 102.011 90.819C102.208 90.8683 102.381 90.9053 102.529 90.93C102.702 90.93 102.862 90.9547 103.01 91.004C103.306 91.1027 103.553 91.2383 103.75 91.411C103.997 91.6577 104.157 91.9167 104.231 92.188C104.256 92.3113 104.268 92.447 104.268 92.595C104.293 92.7183 104.293 92.854 104.268 93.002C104.268 93.3967 104.145 93.7543 103.898 94.075C103.602 94.4203 103.257 94.6423 102.862 94.741C102.344 94.963 101.777 95.074 101.16 95.074C100.889 95.0987 100.605 95.111 100.309 95.111C100.013 95.111 99.7292 95.1233 99.4579 95.148H99.2359C97.3119 95.1973 95.3139 95.1973 93.2419 95.148C92.7486 95.148 92.3539 95.1357 92.0579 95.111C91.7619 95.111 91.4906 95.111 91.2439 95.111C91.0219 95.111 90.7876 95.111 90.5409 95.111C90.2942 95.111 89.9736 95.111 89.5789 95.111C89.0116 95.1603 88.5429 95.0617 88.1729 94.815C87.9016 94.6423 87.6919 94.408 87.5439 94.112C87.4699 94.038 87.4329 93.964 87.4329 93.89C87.4082 93.8407 87.3836 93.8037 87.3589 93.779C87.3342 93.7543 87.3096 93.7173 87.2849 93.668C87.2356 93.5447 87.1986 93.4213 87.1739 93.298C87.1492 93.15 87.1369 93.0143 87.1369 92.891C87.1122 92.7677 87.0876 92.6443 87.0629 92.521C87.0629 92.3977 87.0506 92.2743 87.0259 92.151V91.559C87.0259 91.4603 87.0259 91.3617 87.0259 91.263C87.0506 91.1643 87.0629 91.0657 87.0629 90.967V88.081L87.1369 82.753V77.832C87.1369 76.944 87.1369 76.1547 87.1369 75.464C87.1616 74.7733 87.1862 74.021 87.2109 73.207V73.022C87.2356 72.7507 87.2479 72.504 87.2479 72.282C87.2726 72.0353 87.2849 71.7887 87.2849 71.542C87.3096 71.0487 87.4452 70.5677 87.6919 70.099C87.7906 69.9017 87.8892 69.729 87.9879 69.581C88.1112 69.433 88.2716 69.3097 88.4689 69.211C88.8389 68.989 89.2212 68.878 89.6159 68.878C89.8132 68.878 89.9612 68.8903 90.0599 68.915V68.878C90.5039 68.878 90.8616 68.878 91.1329 68.878C91.4042 68.878 91.6632 68.878 91.9099 68.878C92.1812 68.878 92.4649 68.878 92.7609 68.878C93.0569 68.8533 93.4639 68.841 93.9819 68.841C94.9686 68.8163 95.9059 68.804 96.7939 68.804C97.6819 68.804 98.5946 68.8163 99.5319 68.841H99.6799C99.9512 68.8657 100.235 68.878 100.531 68.878C100.827 68.878 101.111 68.8903 101.382 68.915C101.653 68.915 101.925 68.952 102.196 69.026C102.467 69.0753 102.739 69.1493 103.01 69.248C103.429 69.3713 103.775 69.581 104.046 69.877C104.268 70.2223 104.379 70.5677 104.379 70.913C104.379 71.061 104.379 71.209 104.379 71.357C104.379 71.4803 104.354 71.6037 104.305 71.727C104.28 71.9737 104.132 72.2327 103.861 72.504C103.762 72.5533 103.651 72.615 103.528 72.689C103.429 72.763 103.306 72.8247 103.158 72.874C103.01 72.9233 102.85 72.9603 102.677 72.985C102.529 72.985 102.381 72.9973 102.233 73.022C102.036 73.0713 101.851 73.096 101.678 73.096C101.53 73.096 101.357 73.096 101.16 73.096H99.4949L92.0949 73.133V73.244ZM126.795 80.126C126.844 80.94 126.832 81.7787 126.758 82.642C126.708 83.5053 126.622 84.344 126.499 85.158C126.252 86.564 125.796 87.933 125.13 89.265C124.464 90.597 123.489 91.7317 122.207 92.669C120.875 93.6557 119.358 94.334 117.656 94.704C115.954 95.0493 114.264 95.259 112.587 95.333C112.019 95.3823 111.44 95.3947 110.848 95.37C110.28 95.37 109.725 95.3083 109.183 95.185C108.739 95.111 108.406 94.9753 108.184 94.778C108.06 94.704 107.962 94.6053 107.888 94.482C107.814 94.3587 107.752 94.2353 107.703 94.112C107.629 93.9887 107.567 93.8653 107.518 93.742C107.493 93.594 107.456 93.446 107.407 93.298C107.382 93.1747 107.357 93.0637 107.333 92.965C107.333 92.8417 107.333 92.7307 107.333 92.632V71.505C107.333 71.3323 107.333 71.172 107.333 71.024C107.333 70.876 107.357 70.728 107.407 70.58C107.456 70.2347 107.53 69.951 107.629 69.729C107.727 69.433 107.863 69.2233 108.036 69.1C108.184 68.9767 108.332 68.8903 108.48 68.841C108.628 68.767 108.763 68.7053 108.887 68.656C109.035 68.6067 109.183 68.6067 109.331 68.656C109.503 68.6807 109.688 68.6437 109.886 68.545L116.065 68.693C117.693 68.7423 119.148 69.1247 120.431 69.84C121.713 70.5307 122.811 71.4187 123.724 72.504C124.636 73.5893 125.352 74.8103 125.87 76.167C126.388 77.499 126.696 78.8187 126.795 80.126ZM119.913 87.156C120.381 86.416 120.727 85.565 120.949 84.603C121.171 83.641 121.269 82.6667 121.245 81.68C121.22 80.6687 121.084 79.6943 120.838 78.757C120.591 77.795 120.246 76.944 119.802 76.204C119.456 75.6613 119.012 75.2173 118.47 74.872C117.927 74.5267 117.323 74.2677 116.657 74.095C115.991 73.8977 115.275 73.762 114.511 73.688C113.771 73.614 113.043 73.577 112.328 73.577C112.352 74.2923 112.365 74.983 112.365 75.649C112.365 76.315 112.365 77.018 112.365 77.758C112.34 78.646 112.328 79.5093 112.328 80.348C112.328 81.1867 112.328 82.0007 112.328 82.79V90.338C113.092 90.3133 113.82 90.2763 114.511 90.227C115.226 90.153 115.904 90.005 116.546 89.783C117.212 89.561 117.816 89.2527 118.359 88.858C118.926 88.4387 119.444 87.8713 119.913 87.156Z" fill="white"/>
<path d="M35.119 94.768C35.0983 95.016 35.0673 95.2743 35.026 95.543C34.9847 95.8117 34.9123 96.0597 34.809 96.287C34.7057 96.535 34.5713 96.721 34.406 96.845C34.1787 97.0517 33.91 97.1653 33.6 97.186C33.3107 97.2893 33.0317 97.3203 32.763 97.279C32.4943 97.2377 32.2463 97.1653 32.019 97.062C31.7297 96.876 31.5127 96.659 31.368 96.411C31.244 96.1423 31.151 95.8633 31.089 95.574C31.027 95.2847 30.996 94.985 30.996 94.675C30.996 94.365 30.996 94.0757 30.996 93.807V91.389L30.965 86.646C30.965 86.3153 30.965 86.057 30.965 85.871C30.965 85.685 30.965 85.5197 30.965 85.375C30.965 85.2097 30.9547 85.034 30.934 84.848C30.934 84.6413 30.934 84.352 30.934 83.98C30.934 83.918 30.934 83.8147 30.934 83.67C30.9547 83.5047 30.9443 83.081 30.903 82.399C30.097 83.7423 29.4253 84.8273 28.888 85.654C28.3713 86.46 27.927 87.0903 27.555 87.545C27.2037 87.979 26.8937 88.2787 26.625 88.444C26.3563 88.5887 26.0773 88.6713 25.788 88.692C25.6227 88.7127 25.4573 88.6817 25.292 88.599C25.1267 88.5163 24.9613 88.413 24.796 88.289C24.6513 88.165 24.5067 88.041 24.362 87.917C24.238 87.7723 24.1347 87.638 24.052 87.514C23.556 86.894 22.998 86.15 22.378 85.282C21.758 84.414 21.1173 83.36 20.456 82.12C20.456 82.1407 20.4457 82.4817 20.425 83.143C20.425 83.8043 20.425 84.631 20.425 85.623C20.425 86.5943 20.4147 87.6483 20.394 88.785C20.394 89.901 20.3837 90.9447 20.363 91.916C20.363 92.8873 20.3527 93.7037 20.332 94.365C20.3113 95.0057 20.2907 95.326 20.27 95.326C20.27 95.6773 20.1873 96.008 20.022 96.318C19.8567 96.6073 19.6293 96.845 19.34 97.031C19.0713 97.217 18.751 97.3203 18.379 97.341C18.007 97.3617 17.604 97.2583 17.17 97.031C16.9013 96.8657 16.6947 96.628 16.55 96.318C16.426 96.008 16.3433 95.7187 16.302 95.45C16.2813 95.1607 16.2607 94.8817 16.24 94.613C16.24 94.3443 16.24 94.0653 16.24 93.776L16.271 91.358L16.302 86.584V82.43C16.302 80.632 16.364 78.865 16.488 77.129C16.488 76.9017 16.5087 76.695 16.55 76.509C16.612 76.3023 16.6843 76.106 16.767 75.92C16.9323 75.5893 17.1493 75.3413 17.418 75.176C17.728 74.99 18.0587 74.897 18.41 74.897C18.5547 74.897 18.689 74.9073 18.813 74.928C18.9577 74.928 19.092 74.9383 19.216 74.959C19.6293 75.0417 19.9807 75.2897 20.27 75.703C20.58 76.0957 20.8693 76.4367 21.138 76.726C21.3033 76.912 21.479 77.1393 21.665 77.408C21.851 77.6767 22.037 77.9557 22.223 78.245C22.409 78.5343 22.5847 78.8133 22.75 79.082C22.9153 79.3507 23.06 79.5883 23.184 79.795C23.7213 80.663 24.1967 81.4587 24.61 82.182C25.044 82.9053 25.447 83.5253 25.819 84.042C25.881 83.98 25.9533 83.8973 26.036 83.794C26.1187 83.67 26.2013 83.546 26.284 83.422C26.3873 83.2773 26.47 83.143 26.532 83.019C26.6147 82.895 26.6767 82.7917 26.718 82.709C26.9247 82.3783 27.1313 82.058 27.338 81.748C27.5447 81.4173 27.7617 81.0763 27.989 80.725C28.237 80.353 28.485 79.95 28.733 79.516C29.0017 79.082 29.3117 78.586 29.663 78.028C29.8077 77.78 29.9937 77.4803 30.221 77.129C30.4483 76.7777 30.7067 76.4367 30.996 76.106C31.2853 75.7753 31.585 75.4963 31.895 75.269C32.2257 75.021 32.5563 74.897 32.887 74.897C33.0523 74.897 33.197 74.9073 33.321 74.928C33.445 74.928 33.569 74.9383 33.693 74.959C33.941 74.9797 34.1787 75.0933 34.406 75.3C34.5713 75.4653 34.6953 75.641 34.778 75.827C34.8607 76.0957 34.9123 76.323 34.933 76.509C34.9537 76.6537 34.964 76.788 34.964 76.912C34.9847 77.036 34.995 77.16 34.995 77.284C34.995 78.4413 35.0053 79.5883 35.026 80.725C35.0467 81.8617 35.057 83.0087 35.057 84.166C35.057 85.5713 35.057 87.018 35.057 88.506C35.0777 89.994 35.088 91.4407 35.088 92.846C35.088 93.1353 35.0983 93.4453 35.119 93.776C35.1397 94.1067 35.1397 94.4373 35.119 94.768Z" fill="white"/>
</svg>
